<svg width="83" height="69" viewBox="0 0 83 69" fill="none" xmlns="http://www.w3.org/2000/svg">
<path d="M69.1323 13.0347C72.7892 18.4659 73.9594 22.2925 71.9115 22.2925C70.8876 22.2925 69.8637 21.1815 69.4249 19.8237M69.1323 13.0347L63.4277 21.0581C67.5233 16.7378 68.401 16.6144 69.4249 19.8237M69.1323 13.0347C66.6457 9.33155 66.4994 9.33155 54.0662 9.33155L69.1323 13.0347ZM69.4249 19.8237L69.9007 19.67C69.9007 19.6702 69.9008 19.6704 69.9009 19.6706M69.4249 19.8237L69.9012 19.6718C69.9011 19.6714 69.901 19.671 69.9009 19.6706M69.9009 19.6706C70.0991 20.2836 70.427 20.831 70.8058 21.2172C71.1903 21.6093 71.5817 21.7925 71.9115 21.7925C72.0902 21.7925 72.1839 21.7514 72.234 21.7145C72.2819 21.6794 72.3358 21.6148 72.3731 21.478C72.4558 21.1753 72.4228 20.6409 72.1825 19.8448C71.7104 18.2806 70.5363 16.0151 68.7176 13.3139L68.7172 13.3134C68.0879 12.3761 67.6442 11.7335 67.1364 11.2592C66.6495 10.8046 66.0897 10.4942 65.211 10.2803C64.3135 10.0618 63.0956 9.94685 61.2998 9.88915C59.5088 9.83161 57.1779 9.83155 54.0662 9.83158L54.0611 9.83152C48.0113 9.77001 44.6953 9.7102 41.9443 9.09428C39.1707 8.4733 36.9875 7.29152 33.1895 5.07265L33.1874 5.07142C30.9938 3.77558 29.2783 2.79552 27.8933 2.09577C26.5039 1.39379 25.478 0.990273 24.6587 0.826324C23.8573 0.665962 23.2668 0.737259 22.7256 0.98243C22.1646 1.23657 21.6164 1.69479 20.9326 2.39279M69.9009 19.6706C69.6445 18.8673 69.3762 18.1966 69.0261 17.7477C68.8449 17.5152 68.6253 17.3201 68.3525 17.2045C68.0744 17.0865 67.78 17.0678 67.4813 17.1268C66.9171 17.2382 66.3076 17.6341 65.6262 18.2092C64.9294 18.7971 64.0907 19.632 63.0648 20.7141L63.0611 20.7181L63.0611 20.7181C61.7483 22.1337 60.9052 23.225 60.5747 24.2534C60.2233 25.3471 60.4677 26.301 61.096 27.3614L61.1025 27.3724L61.1095 27.383C62.1234 28.9109 62.562 30.0707 62.562 30.7942C62.562 31.1365 62.4652 31.3282 62.3412 31.4412C62.2094 31.5613 61.9651 31.6675 61.5261 31.6675C61.2882 31.6675 60.9358 31.5043 60.5558 31.0999C60.1895 30.7101 59.8603 30.1592 59.662 29.5465M20.9326 2.39279L65.183 59.4472M20.9326 2.39279C20.7357 2.60867 20.4992 3.00732 20.2498 3.58832C20.0029 4.1636 19.7586 4.88143 19.5343 5.69897C19.0858 7.33402 18.7257 9.33844 18.5818 11.3424L18.5818 11.3424L18.5813 11.3487C18.2904 14.7848 18.0327 16.8183 16.957 18.6008C15.8912 20.367 14.0461 21.8449 10.7777 24.2966C8.29197 26.1783 6.39074 27.6844 4.98767 28.9938C3.5819 30.3058 2.71048 31.3898 2.24796 32.4188C1.35093 34.4144 1.91903 36.3698 3.75146 39.8337L3.75152 39.8336L3.7553 39.8411C4.5105 41.3281 5.29737 42.5484 6.02268 43.4591C6.75797 44.3823 7.39861 44.9473 7.85041 45.1761C8.07976 45.2922 8.18896 45.2854 8.21235 45.28C8.21467 45.2794 8.2154 45.2793 8.21595 45.2789C8.21643 45.2786 8.21679 45.2781 8.21791 45.277C8.22335 45.2715 8.24463 45.247 8.26707 45.1818C8.31503 45.0424 8.3444 44.787 8.29989 44.3738C8.2563 43.9692 8.14609 43.45 7.95092 42.806M20.9326 2.39279L7.95092 42.806M59.662 29.5465C59.6621 29.5466 59.6621 29.5467 59.6621 29.5468L59.1858 29.6987L59.6616 29.545C59.6617 29.5455 59.6619 29.546 59.662 29.5465ZM59.662 29.5465C59.4092 28.7539 59.1582 28.0748 58.7953 27.612C58.6048 27.3689 58.3735 27.1713 58.0838 27.0475C57.7951 26.9241 57.4823 26.8885 57.1501 26.917C56.5089 26.972 55.7268 27.2738 54.7475 27.7576C53.7552 28.2479 52.4985 28.9579 50.892 29.8822C50.8918 29.8823 50.8916 29.8824 50.8914 29.8825L45.481 32.9675L45.0698 33.202L45.2814 33.6254L50.401 43.8707L50.4057 43.8802L50.4058 43.8802C53.3299 49.4323 57.1286 56.9536 58.7325 60.3988L58.7351 60.4043L58.7351 60.4043C59.8394 62.7031 60.8636 64.4298 61.767 65.5723C62.2179 66.1426 62.6534 66.5862 63.0695 66.8815C63.4786 67.1718 63.9286 67.3602 64.3854 67.3033C64.8685 67.2431 65.2208 66.9285 65.456 66.5133C65.6858 66.1077 65.8316 65.5649 65.9143 64.9209C66.0803 63.6278 66.0097 61.7722 65.6786 59.3809M65.6786 59.3809C65.6785 59.3801 65.6784 59.3794 65.6782 59.3786L65.183 59.4472M65.6786 59.3809C65.6787 59.3816 65.6788 59.3823 65.6788 59.3831L65.183 59.4472M65.6786 59.3809C65.459 57.6821 65.3061 56.4037 65.2478 55.4232C65.1891 54.433 65.2318 53.805 65.3669 53.3807C65.4896 52.9951 65.6916 52.7665 66.0381 52.579C66.4212 52.3716 66.9668 52.222 67.7808 52.0347M65.183 59.4472C64.3053 52.6581 64.4516 52.2878 67.6696 51.5472M67.7808 52.0347L67.6696 51.5472M67.7808 52.0347C73.1607 50.8076 76.927 51.0962 79.2324 52.6984L79.2389 52.7029L79.2455 52.7072C79.6924 52.9973 80.0152 53.2759 80.2486 53.5881C80.4784 53.8956 80.6381 54.2579 80.7264 54.7388C80.9086 55.7314 80.7826 57.1867 80.3443 59.5936M67.7808 52.0347C67.7811 52.0346 67.7814 52.0345 67.7818 52.0344L67.6696 51.5472M67.6696 51.5472C73.0817 50.3128 77.0311 50.5597 79.5177 52.2878L80.3443 59.5936M80.3443 59.5936C80.3451 59.5901 80.3459 59.5865 80.3467 59.5829L80.8342 59.694L80.3423 59.6044C80.3429 59.6008 80.3436 59.5972 80.3443 59.5936ZM80.3443 59.5936C79.9722 61.2301 79.8211 62.8116 79.859 64.0452C79.878 64.6611 79.9446 65.2099 80.0643 65.6424C80.1242 65.8587 80.2016 66.0621 80.3038 66.2349C80.4029 66.4025 80.5442 66.5732 80.7465 66.6782M80.3443 59.5936L80.9805 66.2362M80.7465 66.6782C80.7448 66.6772 80.7431 66.6763 80.7414 66.6754L80.9805 66.2362M80.7465 66.6782C80.7492 66.6796 80.7519 66.6809 80.7546 66.6823L80.9805 66.2362M80.7465 66.6782C81.0158 66.825 81.2299 66.9581 81.391 67.0778C81.5223 67.1753 81.603 67.2526 81.6493 67.3081M80.9805 66.2362C85.5149 68.705 78.3475 69.1987 41.1942 69.1987C4.04086 69.1987 -3.12652 68.705 1.40794 66.2362M81.6493 67.3081C81.6963 67.2761 81.7094 67.2582 81.7092 67.2583C81.7091 67.2584 81.7012 67.2691 81.6948 67.292C81.6811 67.341 81.6936 67.3716 81.6935 67.3716C81.6934 67.3716 81.6904 67.3644 81.6798 67.3484C81.672 67.3366 81.6619 67.3231 81.6493 67.3081ZM81.6493 67.3081C81.644 67.3117 81.6382 67.3155 81.632 67.3195C81.4163 67.4575 80.9433 67.617 80.0944 67.766C79.2665 67.9113 78.1438 68.0371 76.6836 68.1446C70.8369 68.575 59.7779 68.6987 41.1942 68.6987C22.6105 68.6987 11.5515 68.575 5.70485 68.1446C4.24461 68.0371 3.12186 67.9113 2.29402 67.766C1.44506 67.617 0.972109 67.4575 0.756397 67.3195C0.750165 67.3155 0.744399 67.3117 0.73907 67.3081M0.73907 67.3081C0.726492 67.3231 0.716451 67.3366 0.708622 67.3484C0.698045 67.3644 0.69499 67.3716 0.694937 67.3716C0.694828 67.3716 0.70729 67.341 0.693627 67.292C0.68719 67.269 0.67924 67.2583 0.67919 67.2583C0.679126 67.2583 0.692289 67.2762 0.73907 67.3081ZM0.73907 67.3081C0.785373 67.2526 0.86606 67.1753 0.997388 67.0778C1.15851 66.9582 1.37261 66.825 1.64185 66.6782M1.64185 66.6782C1.63918 66.6796 1.6365 66.6809 1.63381 66.6823L1.40794 66.2362M1.64185 66.6782C1.84415 66.5732 1.98549 66.4025 2.08459 66.2349C2.1868 66.0621 2.26425 65.8587 2.32408 65.6424C2.44378 65.2099 2.51041 64.6611 2.52937 64.0452C2.56733 62.8116 2.41617 61.2301 2.04417 59.5937M1.64185 66.6782C1.64357 66.6772 1.6453 66.6763 1.64702 66.6754L1.40794 66.2362M1.40794 66.2362L2.04417 59.5937M2.04417 59.5937C2.04481 59.5973 2.04546 59.6008 2.04611 59.6044L1.55421 59.694L2.04172 59.583C2.04254 59.5865 2.04335 59.5901 2.04417 59.5937ZM2.04417 59.5937C1.46601 56.4151 1.68586 54.3489 2.61606 53.0767C3.53134 51.8249 5.2578 51.1831 8.1365 51.1831C11.6362 51.1831 13.9418 51.5567 15.3614 52.3125C16.0576 52.6832 16.5294 53.1402 16.8323 53.6858C17.1372 54.235 17.2905 54.9096 17.2905 55.744C17.2905 55.767 17.2905 55.7899 17.2905 55.8127C17.2904 56.6483 17.2903 57.3816 17.4595 57.9551C17.5517 58.2673 17.6979 58.552 17.9305 58.7953C18.1615 59.0369 18.454 59.2129 18.8028 59.3442C19.48 59.5992 20.4444 59.7115 21.7807 59.7674C23.1282 59.8237 24.9193 59.8237 27.285 59.8237H27.2983C29.7478 59.8237 31.6298 59.8625 33.0363 59.9876C34.466 60.1148 35.3168 60.3261 35.7727 60.6116C35.9842 60.744 36.0859 60.8775 36.136 61.0087C36.1883 61.1459 36.2055 61.337 36.1473 61.6176C36.0262 62.2012 35.618 63.0021 34.9224 64.1146M2.04417 59.5937L35.3433 64.3847M34.9224 64.1146C34.9235 64.113 34.9246 64.1114 34.9257 64.1097L35.3433 64.3847M34.9224 64.1146C34.9214 64.1163 34.9204 64.1179 34.9194 64.1195L35.3433 64.3847M34.9224 64.1146C34.7391 64.3933 34.5757 64.6537 34.4512 64.8914C34.3286 65.1256 34.2247 65.3725 34.19 65.6186C34.1528 65.8822 34.1939 66.1615 34.3796 66.4058C34.5515 66.6319 34.8041 66.7695 35.0677 66.8622C35.5859 67.0444 36.3786 67.1295 37.4613 67.1755C38.5616 67.2223 40.026 67.23 41.9256 67.23C44.2785 67.23 46.3197 67.1062 47.7834 66.8686C48.5107 66.7506 49.1251 66.6 49.57 66.4079C49.7913 66.3123 50.0005 66.194 50.1615 66.0409C50.3268 65.8837 50.4706 65.659 50.4706 65.3722C50.4706 65.2541 50.4328 65.1293 50.4109 65.0589C50.3818 64.9658 50.3412 64.8534 50.2921 64.7266C50.1936 64.4718 50.0513 64.1343 49.8732 63.7291C49.5165 62.9173 49.0074 61.8145 48.3954 60.5199C47.1708 57.9297 45.5283 54.5591 43.8545 51.186C42.1806 47.813 40.4742 44.4348 39.1216 41.8295C38.4455 40.5272 37.8565 39.4154 37.4037 38.5931C37.1775 38.1823 36.9834 37.8404 36.8283 37.5817C36.6938 37.3573 36.566 37.1561 36.4639 37.0373M35.3433 64.3847C33.8806 66.6065 34.3194 66.73 41.9256 66.73C46.6063 66.73 49.9706 66.2362 49.9706 65.3722C49.9706 64.3847 37.0986 38.4628 36.0746 37.3519M36.4639 37.0373C36.4783 37.0556 36.492 37.0754 36.5048 37.097L36.0746 37.3519M36.4639 37.0373C36.3531 36.8967 36.2036 36.8496 36.1553 36.8352C36.0739 36.8108 35.9899 36.8002 35.9195 36.7948C35.7749 36.7836 35.5951 36.7878 35.3972 36.8009C34.996 36.8274 34.4488 36.8956 33.8031 36.9968C32.5103 37.1994 30.7825 37.5407 28.9479 37.974M36.4639 37.0373C36.4566 37.0288 36.4494 37.0207 36.4423 37.013L36.0746 37.3519M36.0746 37.3519L28.9479 37.974M28.9479 37.974C28.951 37.9734 28.9541 37.9728 28.9573 37.9722L29.0535 38.4628L28.9386 37.9762C28.9417 37.9755 28.9448 37.9747 28.9479 37.974ZM28.9479 37.974C27.3829 38.2812 26.1705 38.5308 25.2606 38.7789C24.3657 39.0229 23.6846 39.2843 23.2458 39.6545C23.0148 39.8495 22.8424 40.0811 22.7451 40.3586C22.6491 40.6324 22.638 40.9165 22.6748 41.2002C22.7451 41.7433 23.0067 42.3801 23.33 43.1079M28.9479 37.974L24.4644 46.395C24.4645 46.395 24.4647 46.3946 24.465 46.3938M23.33 43.1079C23.3297 43.1072 23.3294 43.1065 23.3291 43.1058L23.7877 42.9065L23.3308 43.1096C23.3305 43.109 23.3303 43.1085 23.33 43.1079ZM23.33 43.1079C23.7323 44.0337 24.0274 44.7363 24.2197 45.2738C24.4182 45.8281 24.4822 46.1419 24.4765 46.3155C24.4751 46.3567 24.4699 46.3789 24.4668 46.3887M24.4668 46.3887C24.4685 46.3876 24.4698 46.3868 24.4707 46.3861M24.4668 46.3887C24.4661 46.3911 24.4655 46.3928 24.465 46.3938M24.4668 46.3887C24.4618 46.3919 24.453 46.3968 24.4384 46.4029C24.3224 46.4513 24.0918 46.48 23.6414 46.48C23.6416 46.48 23.6416 46.48 23.6413 46.48C23.638 46.4797 23.6032 46.4764 23.5291 46.444C23.4521 46.4102 23.3536 46.354 23.2343 46.2701C22.9951 46.1019 22.7086 45.8481 22.3914 45.521C21.7605 44.8702 21.0497 43.9724 20.4056 43.0069M24.4707 46.3861C24.4716 46.3851 24.4722 46.3847 24.4723 46.3847C24.4723 46.3847 24.4718 46.3852 24.4707 46.3861ZM24.4707 46.3861C24.4696 46.3872 24.4681 46.3891 24.4663 46.3916C24.4658 46.3925 24.4653 46.3932 24.465 46.3938M24.465 46.3938L23.6414 46.98C22.9101 46.98 21.3011 45.2519 19.9846 43.2769M20.4056 43.0069C20.4071 43.0094 20.4087 43.012 20.4103 43.0146L19.9846 43.2769M20.4056 43.0069C19.4425 41.4452 18.5783 40.4236 17.3744 39.821C16.1825 39.2243 14.7255 39.0737 12.671 39.0737C11.4663 39.0737 10.5199 39.0888 9.79984 39.159C9.09966 39.2273 8.51631 39.354 8.11465 39.6492C7.65336 39.9882 7.51763 40.4753 7.54339 41.0041C7.56748 41.4988 7.73419 42.1048 7.95092 42.806M20.4056 43.0069C20.4039 43.0044 20.4023 43.002 20.4007 42.9995L19.9846 43.2769M19.9846 43.2769L7.95092 42.806M50.6908 11.0535L50.6914 11.0535L62.3932 10.8067L64.0909 10.7708L62.6836 11.721L58.3011 14.6795C58.3002 14.6801 58.2993 14.6808 58.2984 14.6814C52.8301 18.4845 43.4563 22.6983 34.1735 25.943C24.9013 29.184 15.6131 31.4959 10.3247 31.4331L10.3247 31.4333L10.3114 31.4327C9.9065 31.4172 9.54549 31.3974 9.23941 31.365C8.93945 31.3332 8.66088 31.2863 8.43498 31.2046C8.22166 31.1275 7.94127 30.9778 7.8235 30.6639C7.7046 30.347 7.81916 30.0453 7.94144 29.834C8.18393 29.415 8.72515 28.8949 9.49279 28.2433C10.2816 27.5737 11.378 26.7108 12.8025 25.6012L12.8025 25.6011L12.8098 25.5956C16.0615 23.1564 18.2685 20.742 19.668 18.0212C21.0665 15.3023 21.6787 12.2383 21.6787 8.46749C21.6787 7.01199 21.7857 5.83245 22.121 4.99026C22.2924 4.55968 22.5328 4.19234 22.8712 3.92456C23.2135 3.65371 23.6219 3.5118 24.0809 3.47874C24.9663 3.41496 26.0811 3.75429 27.4484 4.38564C28.8334 5.0251 30.5539 6.0019 32.6778 7.29975C35.8286 9.21667 37.5528 10.1895 39.8537 10.6786C42.1801 11.1732 45.1143 11.1774 50.6908 11.0535ZM45.6417 30.1545L45.6405 30.1551C38.4354 33.3813 30.8242 35.6471 23.9595 36.7653C17.1093 37.8811 10.9457 37.8637 6.66519 36.4695L6.66013 36.4678C6.37309 36.3709 6.11918 36.2654 5.92639 36.1443C5.76575 36.0433 5.49095 35.8354 5.46856 35.4839C5.44458 35.1075 5.72151 34.8745 5.88732 34.7642C6.08057 34.6355 6.34158 34.5254 6.64299 34.4244C7.84574 34.0216 10.2707 33.5842 14.0594 33.0308C19.59 32.1709 28.7774 29.9558 34.4576 28.1122L34.4597 28.1115C39.2537 26.5791 45.738 23.7827 51.2661 21.0422C54.0286 19.6727 56.5435 18.3214 58.4822 17.1542C59.452 16.5703 60.2715 16.0361 60.9035 15.5716C61.5433 15.1013 61.9522 14.7301 62.1432 14.4721C62.4195 14.0735 62.7116 13.7589 63.009 13.5438C63.3025 13.3314 63.6436 13.1867 63.998 13.2152C64.3801 13.2459 64.6759 13.4693 64.8564 13.7864C65.027 14.0861 65.0979 14.4677 65.0979 14.8862C65.0979 15.3694 64.869 15.8946 64.5465 16.4105C64.2148 16.941 63.7415 17.5278 63.1628 18.149C62.0041 19.393 60.3814 20.8193 58.5044 22.2714C54.7504 25.1753 49.9265 28.2219 45.6417 30.1545ZM50.5592 48.9689L50.5593 48.9688L50.5627 48.9755C54.2845 56.3041 56.3538 60.5402 57.1362 62.8511C57.3329 63.4321 57.4577 63.9177 57.5018 64.3148C57.5444 64.6992 57.5214 65.0831 57.3262 65.3886C57.1098 65.7275 56.7631 65.8516 56.4331 65.8733C56.1184 65.8939 55.7619 65.8283 55.4002 65.7319L55.3912 65.7295L55.3823 65.7267C55.2276 65.6793 55.0998 65.58 55.0128 65.504C54.9148 65.4182 54.8125 65.3107 54.7084 65.1904C54.4994 64.949 54.253 64.621 53.9779 64.2261C53.4263 63.4343 52.7333 62.3356 51.9529 61.033C50.3908 58.4256 48.4622 54.9732 46.5858 51.4586C44.7093 47.9439 42.8815 44.3606 41.5217 41.4909C40.8422 40.0568 40.2768 38.7952 39.8802 37.8069C39.6822 37.3132 39.5235 36.8811 39.4136 36.5261C39.3087 36.1874 39.2315 35.8682 39.2315 35.6237C39.2315 35.1291 39.2905 34.6737 39.4852 34.3497C39.5911 34.1735 39.7486 34.0179 39.9684 33.9384C40.1843 33.8604 40.4014 33.8771 40.5906 33.9329C40.9468 34.038 41.3106 34.3126 41.6673 34.656C42.0371 35.0121 42.452 35.4949 42.908 36.0917C44.7273 38.473 47.3401 42.8566 50.5592 48.9689ZM76.3839 53.8191L76.384 53.8189L76.3945 53.8248C77.4454 54.4031 77.9234 55.5764 78.0563 56.8433C78.1908 58.1244 77.9895 59.6163 77.5647 61.0264C77.1396 62.4372 76.4788 63.806 75.6599 64.8333C74.8521 65.8467 73.8187 66.6128 72.6429 66.6128C72.0552 66.6128 71.5151 66.5389 71.0264 66.3293C70.5302 66.1163 70.1184 65.7768 69.7696 65.2951C69.0946 64.363 68.641 62.8725 68.203 60.655C67.5385 57.2906 67.9273 54.7181 69.4681 53.4178C71.0325 52.0976 73.4927 52.3176 76.3839 53.8191ZM32.5903 63.4574L32.5883 63.4624C32.3292 64.0984 31.7776 64.6058 31.0987 65.0102C30.4135 65.4184 29.5485 65.7518 28.5805 66.0182C26.643 66.5513 24.2173 66.836 21.8028 66.875C19.3882 66.9141 16.9538 66.7079 14.9984 66.2424C14.0214 66.0098 13.1454 65.7082 12.4462 65.3281C11.7541 64.9519 11.1835 64.4705 10.9 63.8525L10.8944 63.8403L10.8895 63.8277C10.8014 63.6049 10.7394 63.3598 10.7555 63.1073C10.7726 62.8406 10.8752 62.5964 11.0646 62.391C11.4092 62.0171 12.0064 61.8113 12.7627 61.6712C14.3164 61.3834 17.0724 61.2925 21.5936 61.2925C25.6859 61.2925 28.4616 61.3844 30.1646 61.6213C31.0027 61.7378 31.6507 61.8975 32.069 62.1419C32.2844 62.2678 32.4866 62.4435 32.5941 62.6939C32.7076 62.9581 32.6819 63.2255 32.5903 63.4574ZM13.4935 53.8228C14.3626 54.2897 14.9458 54.8871 15.1529 55.5938C15.365 56.3175 15.1476 57.0326 14.6746 57.6404C13.752 58.8258 11.7664 59.751 9.22199 60.0668C8.23069 60.1907 7.42766 60.2636 6.78418 60.2615C6.14807 60.2595 5.6108 60.1853 5.1863 59.9704C4.73153 59.7401 4.45553 59.3745 4.3038 58.91C4.16109 58.4732 4.12595 57.9427 4.12595 57.3487C4.12595 55.2533 5.42494 53.7587 7.23732 53.1129C9.03391 52.4728 11.3385 52.654 13.4935 53.8228ZM8.467 64.1106C8.69573 64.8196 8.77202 65.5017 8.61009 65.98C8.52467 66.2323 8.33966 66.5103 7.99519 66.6018C7.68208 66.685 7.38447 66.5723 7.15168 66.4212C6.67691 66.171 6.29357 65.7151 6.03108 65.221C5.76041 64.7114 5.58868 64.1069 5.58868 63.5206C5.58868 62.8857 5.65219 62.3665 5.79962 62.0062C5.87313 61.8266 5.99034 61.6295 6.18676 61.502C6.41055 61.3568 6.66461 61.3483 6.88784 61.4331C7.0868 61.5086 7.24934 61.6515 7.37832 61.7981C7.51211 61.9502 7.63927 62.1403 7.76005 62.358C8.00149 62.7931 8.24178 63.3825 8.467 64.1106Z" fill="white" fill-opacity="0.85" stroke="white"/>
</svg>
